<svg id="visual" viewBox="0 0 900 600" width="900" height="600" xmlns="http://www.w3.org/2000/svg" xmlns:xlink="http://www.w3.org/1999/xlink" version="1.1"><g stroke-width="1" stroke-linejoin="bevel"><path d="M485 299L416 314L515 384Z" fill="#eac601" stroke="#eac601"></path><path d="M416 314L365 413L515 384Z" fill="#e38e17" stroke="#e38e17"></path><path d="M565 511L587 388L515 384Z" fill="#ae3c31" stroke="#ae3c31"></path><path d="M515 384L587 388L485 299Z" fill="#eac601" stroke="#eac601"></path><path d="M322 329L338 411L365 413Z" fill="#ae3c31" stroke="#ae3c31"></path><path d="M365 191L322 329L416 314Z" fill="#d36b26" stroke="#d36b26"></path><path d="M416 314L322 329L365 413Z" fill="#d36b26" stroke="#d36b26"></path><path d="M636 335L536 231L485 299Z" fill="#eac601" stroke="#eac601"></path><path d="M485 299L365 191L416 314Z" fill="#ae3c31" stroke="#ae3c31"></path><path d="M329 493L377 495L365 413Z" fill="#ae3c31" stroke="#ae3c31"></path><path d="M365 413L377 495L515 384Z" fill="#eac601" stroke="#eac601"></path><path d="M587 388L636 335L485 299Z" fill="#d36b26" stroke="#d36b26"></path><path d="M377 495L509 525L515 384Z" fill="#e7a00c" stroke="#e7a00c"></path><path d="M587 388L673 467L636 335Z" fill="#dc7c1f" stroke="#dc7c1f"></path><path d="M509 525L565 511L515 384Z" fill="#c85a2b" stroke="#c85a2b"></path><path d="M427 139L365 191L485 299Z" fill="#eac601" stroke="#eac601"></path><path d="M338 411L329 493L365 413Z" fill="#e8da0e" stroke="#e8da0e"></path><path d="M377 495L468 600L509 525Z" fill="#9f2e33" stroke="#9f2e33"></path><path d="M210 480L329 493L338 411Z" fill="#e38e17" stroke="#e38e17"></path><path d="M536 231L427 139L485 299Z" fill="#9f2e33" stroke="#9f2e33"></path><path d="M212 214L225 320L322 329Z" fill="#d36b26" stroke="#d36b26"></path><path d="M322 329L225 320L338 411Z" fill="#eac601" stroke="#eac601"></path><path d="M565 511L673 467L587 388Z" fill="#9f2e33" stroke="#9f2e33"></path><path d="M636 335L608 162L536 231Z" fill="#eac601" stroke="#eac601"></path><path d="M536 231L527 117L427 139Z" fill="#e7a00c" stroke="#e7a00c"></path><path d="M734 266L608 162L636 335Z" fill="#eab302" stroke="#eab302"></path><path d="M370 600L468 600L377 495Z" fill="#e38e17" stroke="#e38e17"></path><path d="M509 525L629 600L565 511Z" fill="#c85a2b" stroke="#c85a2b"></path><path d="M565 511L629 600L673 467Z" fill="#d36b26" stroke="#d36b26"></path><path d="M608 162L527 117L536 231Z" fill="#eab302" stroke="#eab302"></path><path d="M308 123L288 160L365 191Z" fill="#c85a2b" stroke="#c85a2b"></path><path d="M365 191L288 160L322 329Z" fill="#e7a00c" stroke="#e7a00c"></path><path d="M308 123L365 191L427 139Z" fill="#c85a2b" stroke="#c85a2b"></path><path d="M272 600L370 600L329 493Z" fill="#d36b26" stroke="#d36b26"></path><path d="M329 493L370 600L377 495Z" fill="#e38e17" stroke="#e38e17"></path><path d="M673 467L729 385L636 335Z" fill="#e8da0e" stroke="#e8da0e"></path><path d="M366 0L308 123L427 139Z" fill="#eab302" stroke="#eab302"></path><path d="M171 434L210 480L338 411Z" fill="#eab302" stroke="#eab302"></path><path d="M288 160L212 214L322 329Z" fill="#e7a00c" stroke="#e7a00c"></path><path d="M225 320L171 434L338 411Z" fill="#e7a00c" stroke="#e7a00c"></path><path d="M188 82L212 214L288 160Z" fill="#eab302" stroke="#eab302"></path><path d="M729 385L734 266L636 335Z" fill="#d36b26" stroke="#d36b26"></path><path d="M468 600L629 600L509 525Z" fill="#e7a00c" stroke="#e7a00c"></path><path d="M797 538L820 371L729 385Z" fill="#e38e17" stroke="#e38e17"></path><path d="M117 380L171 434L225 320Z" fill="#e7a00c" stroke="#e7a00c"></path><path d="M608 162L576 71L527 117Z" fill="#eab302" stroke="#eab302"></path><path d="M527 117L508 0L427 139Z" fill="#eab302" stroke="#eab302"></path><path d="M729 67L576 71L608 162Z" fill="#e7a00c" stroke="#e7a00c"></path><path d="M210 480L272 600L329 493Z" fill="#c85a2b" stroke="#c85a2b"></path><path d="M204 600L272 600L210 480Z" fill="#9f2e33" stroke="#9f2e33"></path><path d="M734 266L728 166L608 162Z" fill="#ae3c31" stroke="#ae3c31"></path><path d="M629 600L688 600L673 467Z" fill="#d36b26" stroke="#d36b26"></path><path d="M101 284L117 380L225 320Z" fill="#ae3c31" stroke="#ae3c31"></path><path d="M96 508L204 600L210 480Z" fill="#d36b26" stroke="#d36b26"></path><path d="M820 371L808 331L729 385Z" fill="#ae3c31" stroke="#ae3c31"></path><path d="M729 385L808 331L734 266Z" fill="#e8da0e" stroke="#e8da0e"></path><path d="M734 266L839 187L728 166Z" fill="#c85a2b" stroke="#c85a2b"></path><path d="M96 508L210 480L171 434Z" fill="#e8da0e" stroke="#e8da0e"></path><path d="M562 0L508 0L576 71Z" fill="#bc4b2f" stroke="#bc4b2f"></path><path d="M576 71L508 0L527 117Z" fill="#9f2e33" stroke="#9f2e33"></path><path d="M797 538L729 385L673 467Z" fill="#dc7c1f" stroke="#dc7c1f"></path><path d="M84 238L101 284L212 214Z" fill="#c85a2b" stroke="#c85a2b"></path><path d="M212 214L101 284L225 320Z" fill="#bc4b2f" stroke="#bc4b2f"></path><path d="M508 0L366 0L427 139Z" fill="#eac601" stroke="#eac601"></path><path d="M308 123L188 82L288 160Z" fill="#ae3c31" stroke="#ae3c31"></path><path d="M670 0L562 0L576 71Z" fill="#bc4b2f" stroke="#bc4b2f"></path><path d="M366 0L336 0L308 123Z" fill="#ae3c31" stroke="#ae3c31"></path><path d="M688 600L797 538L673 467Z" fill="#d36b26" stroke="#d36b26"></path><path d="M336 0L188 82L308 123Z" fill="#bc4b2f" stroke="#bc4b2f"></path><path d="M829 88L729 67L728 166Z" fill="#ae3c31" stroke="#ae3c31"></path><path d="M728 166L729 67L608 162Z" fill="#9f2e33" stroke="#9f2e33"></path><path d="M839 187L734 266L808 331Z" fill="#c85a2b" stroke="#c85a2b"></path><path d="M119 135L84 238L212 214Z" fill="#e38e17" stroke="#e38e17"></path><path d="M0 362L96 508L117 380Z" fill="#e38e17" stroke="#e38e17"></path><path d="M0 362L117 380L0 334Z" fill="#eac601" stroke="#eac601"></path><path d="M117 380L96 508L171 434Z" fill="#d36b26" stroke="#d36b26"></path><path d="M188 82L119 135L212 214Z" fill="#d36b26" stroke="#d36b26"></path><path d="M729 67L670 0L576 71Z" fill="#eac601" stroke="#eac601"></path><path d="M900 308L839 187L808 331Z" fill="#eab302" stroke="#eab302"></path><path d="M729 67L791 0L670 0Z" fill="#e8da0e" stroke="#e8da0e"></path><path d="M900 426L900 308L820 371Z" fill="#c85a2b" stroke="#c85a2b"></path><path d="M820 371L900 308L808 331Z" fill="#9f2e33" stroke="#9f2e33"></path><path d="M688 600L831 600L797 538Z" fill="#d36b26" stroke="#d36b26"></path><path d="M797 538L900 426L820 371Z" fill="#eab302" stroke="#eab302"></path><path d="M900 490L900 426L797 538Z" fill="#dc7c1f" stroke="#dc7c1f"></path><path d="M336 0L183 0L188 82Z" fill="#e8da0e" stroke="#e8da0e"></path><path d="M188 82L71 0L119 135Z" fill="#ae3c31" stroke="#ae3c31"></path><path d="M900 133L829 88L839 187Z" fill="#c85a2b" stroke="#c85a2b"></path><path d="M839 187L829 88L728 166Z" fill="#ae3c31" stroke="#ae3c31"></path><path d="M831 600L900 490L797 538Z" fill="#c85a2b" stroke="#c85a2b"></path><path d="M0 334L117 380L101 284Z" fill="#c85a2b" stroke="#c85a2b"></path><path d="M0 334L101 284L84 238Z" fill="#e38e17" stroke="#e38e17"></path><path d="M0 334L84 238L0 199Z" fill="#9f2e33" stroke="#9f2e33"></path><path d="M0 199L84 238L119 135Z" fill="#eab302" stroke="#eab302"></path><path d="M0 538L64 600L96 508Z" fill="#eac601" stroke="#eac601"></path><path d="M96 508L64 600L204 600Z" fill="#e7a00c" stroke="#e7a00c"></path><path d="M900 308L900 189L839 187Z" fill="#bc4b2f" stroke="#bc4b2f"></path><path d="M900 0L791 0L829 88Z" fill="#e7a00c" stroke="#e7a00c"></path><path d="M829 88L791 0L729 67Z" fill="#e38e17" stroke="#e38e17"></path><path d="M0 72L0 199L119 135Z" fill="#e8da0e" stroke="#e8da0e"></path><path d="M900 189L900 133L839 187Z" fill="#ae3c31" stroke="#ae3c31"></path><path d="M0 362L0 538L96 508Z" fill="#dc7c1f" stroke="#dc7c1f"></path><path d="M831 600L900 600L900 490Z" fill="#e7a00c" stroke="#e7a00c"></path><path d="M0 538L0 600L64 600Z" fill="#eac601" stroke="#eac601"></path><path d="M183 0L71 0L188 82Z" fill="#bc4b2f" stroke="#bc4b2f"></path><path d="M71 0L0 72L119 135Z" fill="#c85a2b" stroke="#c85a2b"></path><path d="M900 133L900 0L829 88Z" fill="#c85a2b" stroke="#c85a2b"></path><path d="M71 0L0 0L0 72Z" fill="#c85a2b" stroke="#c85a2b"></path></g></svg>